# AST/ASF file generated using VICON BodyLanguage
# -----------------------------------------------
:version 1.10
:name VICON
:units
  mass 1.0
  length 0.45
  angle deg
:documentation
   .ast/.asf automatically generated from VICON data using
   VICON BodyBuilder and BodyLanguage model FoxedUp or BRILLIANT.MOD
:root
   order TX TY TZ RX RY RZ
   axis XYZ
   position 0 0 0  
   orientation 0 0 0 
:bonedata
  begin
     id 1 
     name lhipjoint
     direction 0.711131 -0.61297 0.344326 
     length 2.29162 
     axis 0 0 0  XYZ
  end
  begin
     id 2 
     name lfemur
     direction 0.34202 -0.939693 0  
     length 6.71424  
     axis 0 0 20  XYZ
    dof rx ry rz
    limits (-160.0 20.0)
           (-70.0 70.0)
           (-60.0 70.0)
  end
  begin
     id 3 
     name ltibia
     direction 0.34202 -0.939693 0   
     length 6.7087   
     axis 0 0 20   XYZ
    dof rx
    limits (-10.0 170.0)
  end
  begin
     id 4 
     name lfoot
     direction 0.0230374 -0.0632947 0.997729   
     length 1.56743   
     axis -90 7.62852e-016 20   XYZ
    dof rx rz
    limits (-45.0 90.0)
           (-70.0 20.0)
  end
  begin
     id 5 
     name ltoes
     direction 1.53585e-011 -4.21885e-011 1   
     length 0.802914   
     axis -90 7.62852e-016 20   XYZ
    dof rx
    limits (-90.0 20.0)
  end
  begin
     id 6 
     name rhipjoint
     direction -0.733192 -0.592884 0.333043   
     length 2.36925  
     axis 0 0 0  XYZ 
  end
  begin
     id 7 
     name rfemur
     direction -0.34202 -0.939693 0   
     length 6.67027   
     axis 0 0 -20   XYZ
    dof rx ry rz
    limits (-160.0 20.0)
           (-70.0 70.0)
           (-70.0 60.0)
  end
  begin
     id 8 
     name rtibia
     direction -0.34202 -0.939693 0   
     length 6.6862   
     axis 0 0 -20   XYZ
    dof rx
    limits (-10.0 170.0)
 end
 begin
     id 9 
     name rfoot
     direction -0.0949739 -0.260939 0.960672   
     length 1.67698  
     axis -90 -7.62852e-016 -20   XYZ
    dof rx rz
    limits (-45.0 90.0)
           (-20.0 70.0)
  end
  begin
     id 10 
     name rtoes
     direction -1.5353e-011 -4.21868e-011 1   
     length 0.846298   
     axis -90 -7.62852e-016 -20   XYZ
    dof rx
    limits (-90.0 20.0)
  end
  begin
     id 11 
     name lowerback
     direction -0.0206828 0.999785 -0.00109866   
     length 2.04382   
     axis 0 0 0   XYZ
    dof rx ry rz
    limits (-20.0 45.0)
           (-30.0 30.0)
           (-30.0 30.0)
  end
  begin
     id 12 
     name upperback
     direction -0.0105003 0.999727 -0.0208904   
     length 2.04538   
     axis 0 0 0   XYZ
    dof rx ry rz
    limits (-20.0 45.0)
           (-30.0 30.0)
           (-30.0 30.0)
  end
  begin
     id 13 
     name thorax
     direction -0.000416255 0.999808 -0.0196023   
     length 2.0399   
     axis 0 0 0   XYZ
    dof rx ry rz
    limits (-20.0 45.0)
           (-30.0 30.0)
           (-30.0 30.0)
  end
  begin
     id 14 
     name lowerneck
     direction 0.0627861 0.989205 0.13241   
     length 1.46207   
     axis 0 0 0   XYZ
    dof rx ry rz
    limits (-20.0 45.0)
           (-30.0 30.0)
           (-30.0 30.0)
  end
  begin
     id 15 
     name upperneck
     direction 0.00627179 0.994526 0.104303   
     length 1.41419   
     axis 0 0 0   XYZ
    dof rx ry rz
    limits (-20.0 45.0)
           (-30.0 30.0)
           (-30.0 30.0)
  end
  begin
     id 16
     name head
     direction -0.00443838 0.999688 0.0245968  
     length 1.50718  
     axis 0 0 0   XYZ
    dof rx ry rz
    limits (-20.0 45.0)
           (-30.0 30.0)
           (-30.0 30.0)
  end
  begin
     id 17 
     name lclavicle
     direction 0.758742 0.650995 -0.0227258  
     length 2.86888  
     axis 0 0 0   XYZ
    dof ry rz
    limits (-20.0 10.0)
           (0.0 20.0)
  end
  begin
     id 18 
     name lhumerus
     direction 1 -4.48962e-011 1.06664e-027   
     length 4.65776   
     axis -180 -30 -90   XYZ
    dof rx ry rz
    limits (-60.0 90.0)
           (-90.0 90.0)
           (-90.0 90.0)
  end
  begin
     id 19
     name lradius
     direction 1 -4.48968e-011 1.40404e-026   
     length 3.55539   
     axis -180 -30 -90   XYZ
    dof rx
    limits (-10.0 170.0)
  end
  begin
     id 20
     name lwrist
     direction 1 -4.48976e-011 3.32647e-026   
     length 1.77769   
     axis -2.20186e-014 90 90   XYZ
    dof ry
    limits (-180.0 0.0)
 end
  begin
     id 21 
     name lhand
     direction 1 -4.48982e-011 6.65293e-026   
     length 0.707264   
     axis -4.24514e-014 90 90   XYZ
    dof rx rz
    limits (-90.0 90.0)
           (-45.0 45.0)
  end
  begin
     id 22 
     name lfingers
     direction 1 -4.48966e-011 1.33059e-025   
     length 0.570215   
     axis -8.49028e-014 90 90   XYZ
    dof rx
    limits (0.0 90.0)
  end
  begin
     id 23
     name lthumb
     direction 0.707107 -6.3493e-011 0.707107   
     length 0.818718   
     axis -90 45 2.85299e-015   XYZ
    dof rx rz
    limits (-45.0 45.0)
           (-45.0 45.0)
  end
  begin
     id 24 
     name rclavicle
     direction -0.870343 0.482028 -0.100759   
     length 3.2251  
     axis 0 0 0   XYZ 
    dof ry rz
    limits (-10.0 20.0)
           (-20.0 0.0)
  end
  begin
     id 25 
     name rhumerus
     direction -1 -4.48974e-011 -9.45849e-028  
     length 4.71925   
     axis -180 30 90   XYZ
    dof rx ry rz
    limits (-90.0 60.0)
           (-90.0 90.0)
           (-90.0 90.0)
  end
  begin
     id 26 
     name rradius
     direction -1 -4.48965e-011 1.17607e-026   
     length 3.5699   
     axis -180 30 90   XYZ
    dof rx
    limits (-10.0 170.0)
  end
  begin
     id 27 
     name rwrist
     direction -1 -4.48968e-011 3.32647e-026   
     length 1.78495   
     axis -2.20186e-014 -90 -90   XYZ
    dof ry
    limits (-180.0 0.0)
  end
  begin
     id 28
     name rhand
     direction -1 -4.48995e-011 6.65293e-026   
     length 0.507757   
     axis -4.24514e-014 -90 -90   XYZ
    dof rx rz
    limits (-90.0 90.0)
           (-45.0 45.0)
  end
  begin
     id 29
     name rfingers
     direction -1 -4.48864e-011 1.33059e-025   
     length 0.409367   
     axis -8.49028e-014 -90 -90   XYZ
    dof rx
    limits (0.0 90.0)
  end
  begin
     id 30
     name rthumb
     direction -0.707107 -6.3494e-011 0.707107   
     length 0.587771   
     axis -90 -45 -2.85299e-015   XYZ
    dof rx rz
    limits (-45.0 45.0)
           (-45.0 45.0)
  end
:hierarchy
  begin
    root lhipjoint rhipjoint lowerback
    lhipjoint lfemur
    lfemur ltibia
    ltibia lfoot
    lfoot ltoes
    rhipjoint rfemur
    rfemur rtibia
    rtibia rfoot
    rfoot rtoes
    lowerback upperback
    upperback thorax
    thorax lowerneck lclavicle rclavicle
    lowerneck upperneck
    upperneck head
    lclavicle lhumerus
    lhumerus lradius
    lradius lwrist
    lwrist lhand lthumb
    lhand lfingers
    rclavicle rhumerus
    rhumerus rradius
    rradius rwrist
    rwrist rhand rthumb
    rhand rfingers
  end

#!OML:ASF E:\Steps\Project 1\Capture day 1\Session 2\Subject.ASF
:FULLY-SPECIFIED
:DEGREES
59
root 8.78753 16.3142 31.007 -154.767 -0.131086 179.9
lowerback -27.4578 -0.875908 -4.30947
upperback -2.97008 -0.644008 -0.19421
thorax 11.965 -0.847221 1.95734
lowerneck -2.35777 -4.34193 -3.51502
upperneck -11.955 -4.37124 7.70098
head -3.20057 -1.92782 3.24448
rclavicle -3.42904e-015 3.18055e-015
rhumerus -34.1941 -17.0288 -81.3361
rradius 30.3827
rwrist 0.284569
rhand -8.11125 -53.2945
rfingers 7.12502
rthumb 17.8018 -82.4997
lclavicle -3.42904e-015 3.18055e-015
lhumerus -28.7784 6.02034 81.6952
lradius 20.6317
lwrist -6.97118
lhand -21.0385 -13.3031
lfingers 7.12502
lthumb 5.33715 16.6097
rfemur -23.1326 7.26807 18.3561
rtibia 8.52578
rfoot -19.9312 -6.29
rtoes -30.5829
lfemur -22.4021 -8.3172 -18.5596
ltibia 7.72807
lfoot -9.10255 4.76954
ltoes -42.9937
60
root 8.78754 16.3145 31.0094 -154.847 -0.137173 179.918
lowerback -27.3886 -0.877553 -4.30294
upperback -2.94614 -0.644809 -0.183631
thorax 11.9567 -0.844614 1.96632
lowerneck -2.4694 -4.34566 -3.48449
upperneck -11.9234 -4.37101 7.69874
head -3.16945 -1.92491 3.23324
rclavicle -5.06901e-015 -1.15295e-014
rhumerus -34.0322 -16.5467 -81.6872
rradius 30.8555
rwrist -0.110591
rhand -8.47464 -53.9602
rfingers 7.12502
rthumb 17.4521 -83.1968
lclavicle -5.06901e-015 -1.15295e-014
lhumerus -28.5676 5.44946 82.121
lradius 21.2101
lwrist -6.54569
lhand -21.0709 -13.8571
lfingers 7.12502
lthumb 5.30593 16.0564
rfemur -23.0558 7.25987 18.3801
rtibia 8.48208
rfoot -19.8675 -6.289
rtoes -30.5299
lfemur -22.3491 -8.31688 -18.5464
ltibia 7.74653
lfoot -9.04597 4.81133
ltoes -43.0981
61
root 8.79039 16.3139 31.0105 -154.892 -0.123733 179.884
lowerback -27.3681 -0.885962 -4.38359
upperback -2.91731 -0.624918 -0.193529
thorax 11.9784 -0.83763 2.0092
lowerneck -2.57284 -4.41026 -3.43579
upperneck -11.9661 -4.43303 7.77505
head -3.16056 -1.9526 3.24886
rclavicle 6.4605e-016 3.57812e-015
rhumerus -33.8598 -16.0833 -82.0147
rradius 31.307
rwrist -0.433248
rhand -8.59231 -54.4208
rfingers 7.12502
rthumb 17.3388 -83.6674
lclavicle 6.4605e-016 3.57812e-015
lhumerus -28.3962 4.70515 82.589
lradius 21.8937
lwrist -5.98563
lhand -21.0595 -14.353
lfingers 7.12502
lthumb 5.31688 15.5603
rfemur -22.9999 7.63027 18.2709
rtibia 8.46915
rfoot -19.8515 -6.62887
rtoes -30.3511
lfemur -22.329 -8.3096 -18.588
ltibia 7.77063
lfoot -9.04821 4.84316
ltoes -43.1426
62
root 8.79182 16.3146 31.0138 -154.897 -0.222509 179.873
lowerback -27.3094 -0.877622 -4.40552
upperback -2.93739 -0.608921 -0.218656
thorax 11.9229 -0.829799 1.9998
lowerneck -2.66124 -4.47513 -3.37072
upperneck -11.9613 -4.50381 7.8429
head -3.13794 -1.98709 3.25752
rclavicle 4.82053e-015 3.06128e-014
rhumerus -33.6752 -15.9325 -82.2417
rradius 31.5745
rwrist -0.547205
rhand -8.43453 -54.2763
rfingers 7.12502
rthumb 17.4907 -83.5094
lclavicle 4.82053e-015 3.06128e-014
lhumerus -28.2857 3.94022 83.0169
lradius 22.549
lwrist -5.35906
lhand -20.7623 -14.3363
lfingers 7.12502
lthumb 5.60388 15.5696
rfemur -22.9637 8.0258 18.1944
rtibia 8.4405
rfoot -19.8517 -7.0614
rtoes -30.1502
lfemur -22.3788 -8.38018 -18.56
ltibia 7.83694
lfoot -9.09395 4.8009
ltoes -42.9009
63
root 8.79142 16.316 31.0169 -154.87 -0.298047 179.828
lowerback -27.2852 -0.883349 -4.43924
upperback -2.97742 -0.611932 -0.24513
thorax 11.8635 -0.833163 1.98815
lowerneck -2.69282 -4.52912 -3.34621
upperneck -11.984 -4.56315 7.89968
head -3.13549 -2.01599 3.27259
rclavicle -6.4605e-016 -1.03368e-014
rhumerus -33.4742 -15.7164 -82.4775
rradius 31.7688
rwrist -0.739239
rhand -8.46549 -54.2098
rfingers 7.12502
rthumb 17.4609 -83.4456
lclavicle -6.4605e-016 -1.03368e-014
lhumerus -28.2003 3.42124 83.3632
lradius 23.0823
lwrist -5.23998
lhand -21.0215 -14.2291
lfingers 7.12502
lthumb 5.35361 15.6833
rfemur -22.9891 7.80561 18.1898
rtibia 8.46677
rfoot -19.8775 -6.98181
rtoes -30.3972
lfemur -22.4654 -8.49159 -18.5577
ltibia 7.90173
lfoot -9.15129 4.76684
ltoes -42.28
